<svg width="24" height="20" viewBox="0 0 24 20" fill="none" xmlns="http://www.w3.org/2000/svg">
<path fill-rule="evenodd" clip-rule="evenodd" d="M20.8652 17.8809C22.01 17.8809 22.6858 16.5974 22.038 15.6535L13.1728 2.73642C12.6077 1.91304 11.3923 1.91304 10.8272 2.73642L1.96197 15.6535C1.31416 16.5974 1.98997 17.8809 3.13479 17.8809L20.8652 17.8809ZM23.4454 14.6876C24.8706 16.7642 23.3838 19.5879 20.8652 19.5879L3.13479 19.5879C0.616182 19.5879 -0.870592 16.7642 0.554593 14.6876L9.4198 1.77052C10.663 -0.0409386 13.337 -0.0409384 14.5802 1.77052L23.4454 14.6876Z" fill="#1F1F1F"/>
<path fill-rule="evenodd" clip-rule="evenodd" d="M10.9648 12.6372V6.03711H13.0352V12.6372H10.9648ZM10.9648 15.4571V13.8971H13.0352V15.4571H10.9648Z" fill="#1F1F1F"/>
</svg>
