<svg width="16" height="16" viewBox="0 0 16 16" fill="none" xmlns="http://www.w3.org/2000/svg">
<g clip-path="url(#clip0)">
<path d="M14.4844 1.51559C13.5069 0.538251 12.2074 0 10.8253 0C9.44305 0 8.14355 0.538251 7.16626 1.51559C6.18874 2.49298 5.65043 3.79252 5.65043 5.17477C5.65043 5.88539 5.79373 6.57373 6.06479 7.20806L0.363272 12.9096C0.259715 13.013 0.195924 13.1496 0.182957 13.2953L0.00248547 15.3207C-0.0139852 15.5048 0.052002 15.6867 0.182669 15.8173C0.313337 15.9479 0.495115 16.0139 0.679273 15.9975L2.70475 15.8171C2.85042 15.8041 2.98692 15.7403 3.09047 15.6367L3.70462 15.0225C3.70044 15.0054 3.69743 14.988 3.69618 14.9699L3.5955 13.5021C3.58956 13.4151 3.62148 13.3298 3.68316 13.2682C3.74478 13.2065 3.82951 13.1751 3.91704 13.1805L5.38494 13.2811C5.40301 13.2823 5.42055 13.2853 5.43757 13.2896L5.91961 12.8076C5.91538 12.7905 5.91237 12.773 5.91112 12.7549L5.81044 11.2871C5.8045 11.2001 5.83648 11.1148 5.8981 11.0532C5.95972 10.9915 6.04489 10.9597 6.13206 10.9655L7.59993 11.0662C7.61792 11.0673 7.63554 11.0704 7.65256 11.0747L8.79228 9.9349C9.42661 10.206 10.115 10.3492 10.8255 10.3492C12.2078 10.3492 13.5072 9.81095 14.4846 8.83366C16.5021 6.81632 16.5021 3.53338 14.4844 1.51559ZM12.332 6.68157C11.9296 7.08396 11.3945 7.30555 10.8253 7.30555C10.2562 7.30555 9.7211 7.08393 9.31866 6.68144C8.91618 6.27901 8.6945 5.7439 8.6945 5.17474C8.6945 4.60554 8.91618 4.07048 9.31866 3.66804C9.72096 3.26561 10.2561 3.04401 10.8253 3.04401C11.3945 3.04401 11.9295 3.26564 12.332 3.66804C13.1628 4.4989 13.1628 5.85083 12.332 6.68157Z" fill="white"/>
</g>
<defs>
<clipPath id="clip0">
<rect width="16" height="16" fill="white"/>
</clipPath>
</defs>
</svg>
