<?xml version="1.0" encoding="utf-8"?><svg xmlns="http://www.w3.org/2000/svg" xmlns:xlink="http://www.w3.org/1999/xlink"><symbol viewBox="0 0 8 10" id="Ya" xmlns="http://www.w3.org/2000/svg"><path d="M7.5 9.5v-9H3.978C3.27.5 2.732.582 2.364.746c-.369.16-.663.444-.883.853-.22.41-.33.861-.33 1.357 0 .638.182 1.176.546 1.614.365.438.929.716 1.69.835a2.737 2.737 0 00-.633.448c-.307.32-.598.719-.872 1.197L.5 9.5h1.322l1.051-1.872c.307-.54.56-.954.759-1.24.198-.287.375-.488.53-.602.16-.115.32-.195.483-.24.119-.028.314-.043.585-.043h1.219V9.5H7.5zM6.449 4.472h-2.26c-.48 0-.855-.055-1.126-.166a1.253 1.253 0 01-.618-.54c-.14-.25-.211-.52-.211-.81 0-.426.135-.776.406-1.05.275-.274.706-.411 1.295-.411h2.514v2.977z"/></symbol><symbol viewBox="0 0 9 10" id="a" xmlns="http://www.w3.org/2000/svg"><path d="M.5 9.5l3.283-9H5l3.499 9H7.211l-.997-2.726H2.64L1.7 9.5H.5zm2.466-3.696h2.898l-.892-2.492a25.54 25.54 0 01-.606-1.867c-.109.578-.262 1.15-.46 1.72l-.94 2.64z"/></symbol><symbol viewBox="0 0 8 12" id="arrow-down" xmlns="http://www.w3.org/2000/svg"><path fill-rule="evenodd" clip-rule="evenodd" d="M7.857 8.847l-3.101 3.015a.497.497 0 01-.69 0l-3.1-3.015a.464.464 0 010-.67.497.497 0 01.689 0l2.269 2.206V.158h.975v10.225l2.27-2.206a.497.497 0 01.688 0c.19.185.19.485 0 .67z"/></symbol><symbol viewBox="0 0 18 13" id="arrow-left" xmlns="http://www.w3.org/2000/svg"><path d="M17.11 6.569h-16m0 0l5.5-5.5m-5.5 5.5l5.5 5.5"/></symbol><symbol viewBox="0 0 8 11" id="arrow-up" xmlns="http://www.w3.org/2000/svg"><path fill-rule="evenodd" clip-rule="evenodd" d="M.143 3.154L3.244.139a.497.497 0 01.69 0l3.1 3.015c.19.185.19.484 0 .67a.497.497 0 01-.689 0L4.076 1.617v9.277h-.975V1.618L.831 3.823a.497.497 0 01-.688 0 .464.464 0 010-.67z"/></symbol><symbol viewBox="0 0 11 12" id="basket" xmlns="http://www.w3.org/2000/svg"><path d="M1.534 10.667c0 .733.6 1.333 1.333 1.333h5.334c.733 0 1.333-.6 1.333-1.333v-8h-8v8zm8.667-10H7.867L7.201 0H3.867l-.666.667H.867V2H10.2V.667z"/></symbol><symbol viewBox="0 0 17 12" id="check" xmlns="http://www.w3.org/2000/svg"><path d="M5.335 9.493L1.574 5.73.32 6.985 5.335 12 16.081 1.254 14.828 0 5.335 9.493z"/></symbol><symbol viewBox="0 0 14 9" id="chevron-down" xmlns="http://www.w3.org/2000/svg"><path d="M1.063 1.5L7 7.5l5.937-6"/></symbol><symbol viewBox="0 0 6 9" id="chevron-right" xmlns="http://www.w3.org/2000/svg"><path fill-rule="evenodd" clip-rule="evenodd" d="M.124 8.33a.5.5 0 01.047-.706L3.74 4.5.17 1.376A.5.5 0 11.829.624L5.26 4.5.83 8.376a.5.5 0 01-.705-.047z"/></symbol><symbol viewBox="0 0 14 9" id="chevron-up" xmlns="http://www.w3.org/2000/svg"><path d="M1.063 7.5L7 1.5l5.937 6"/></symbol><symbol viewBox="0 0 12 12" id="close" xmlns="http://www.w3.org/2000/svg"><path fill-rule="evenodd" clip-rule="evenodd" d="M4.735 6L0 10.735 1.265 12 6 7.265 10.735 12 12 10.735 7.265 6 12 1.265 10.735 0 6 4.735 1.265 0 0 1.265 4.735 6z"/></symbol><symbol viewBox="0 0 25 22" id="doc" xmlns="http://www.w3.org/2000/svg"><path fill-rule="evenodd" clip-rule="evenodd" d="M19.165 6.667l-4.462-4.315a.59.59 0 00-.446-.185H7.882c-.704 0-1.275.552-1.275 1.233v14.794c0 .681.571 1.233 1.275 1.233h10.2c.703 0 1.274-.552 1.274-1.233V7.098a.552.552 0 00-.191-.431zm-4.909-3.02l3.57 3.451h-3.57V3.646zM7.882 3.4v14.794H18.08V8.331h-3.825c-.704 0-1.275-.552-1.275-1.233V3.4h-5.1z"/></symbol><symbol viewBox="0 0 26 5" id="dots" xmlns="http://www.w3.org/2000/svg"><circle cx="2.904" cy="2.569" r="2.12"/><circle cx="13.143" cy="2.569" r="2.12"/><circle cx="23.382" cy="2.569" r="2.12"/></symbol><symbol viewBox="0 0 25 25" id="download" xmlns="http://www.w3.org/2000/svg"><path d="M12.799 16.856l4-5h-3v-7h-2v7h-3l4 5z"/><path d="M20.799 18.856h-16v-7h-2v7c0 1.103.897 2 2 2h16c1.103 0 2-.897 2-2v-7h-2v7z"/></symbol><symbol viewBox="0 0 13 14" id="edit" xmlns="http://www.w3.org/2000/svg"><path d="M.484 10.53v2.52h2.52l7.434-7.434-2.52-2.52-7.434 7.433zm11.903-6.863a.67.67 0 000-.947l-1.573-1.573a.67.67 0 00-.947 0l-1.23 1.23 2.52 2.52 1.23-1.23z"/></symbol><symbol viewBox="0 0 24 24" id="fb" xmlns="http://www.w3.org/2000/svg"><path d="M13.397 20.997v-8.196h2.765l.411-3.209h-3.176V7.548c0-.926.258-1.56 1.587-1.56h1.684v-2.86A22.108 22.108 0 0014.201 3c-2.444 0-4.122 1.492-4.122 4.231v2.355H7.332v3.21h2.753v8.201h3.312z"/></symbol><symbol viewBox="0 0 24 24" id="instagram" xmlns="http://www.w3.org/2000/svg"><path d="M11.999 7.377a4.624 4.624 0 100 9.248 4.624 4.624 0 000-9.248zm0 7.627a3.004 3.004 0 110-6.008 3.004 3.004 0 010 6.008zm4.807-6.719a1.078 1.078 0 100-2.156 1.078 1.078 0 000 2.156z"/><path d="M20.533 6.11A4.605 4.605 0 0017.9 3.48a6.607 6.607 0 00-2.186-.42c-.963-.042-1.268-.054-3.71-.054s-2.755 0-3.71.054a6.554 6.554 0 00-2.184.42 4.6 4.6 0 00-2.633 2.63 6.585 6.585 0 00-.419 2.186c-.043.962-.056 1.267-.056 3.71 0 2.442 0 2.753.056 3.71.015.748.156 1.486.419 2.187a4.61 4.61 0 002.634 2.632 6.583 6.583 0 002.185.45c.963.042 1.268.055 3.71.055s2.755 0 3.71-.055a6.616 6.616 0 002.186-.42 4.613 4.613 0 002.633-2.632c.263-.7.404-1.438.419-2.186.043-.962.056-1.267.056-3.71s0-2.753-.056-3.71a6.583 6.583 0 00-.421-2.217zm-1.218 9.533a5.046 5.046 0 01-.311 1.688 2.987 2.987 0 01-1.712 1.71c-.535.2-1.1.305-1.67.312-.95.044-1.218.055-3.654.055-2.438 0-2.687 0-3.655-.055a4.961 4.961 0 01-1.67-.311 2.984 2.984 0 01-1.718-1.711 5.08 5.08 0 01-.311-1.67c-.043-.95-.053-1.217-.053-3.653 0-2.437 0-2.686.053-3.655a5.038 5.038 0 01.311-1.687c.305-.79.93-1.41 1.719-1.712a5.01 5.01 0 011.669-.311c.95-.043 1.218-.055 3.655-.055s2.687 0 3.654.055a4.96 4.96 0 011.67.31 2.99 2.99 0 011.712 1.713 5.06 5.06 0 01.311 1.669c.043.95.054 1.218.054 3.655 0 2.436 0 2.698-.043 3.654h-.011v-.001z"/></symbol><symbol viewBox="0 0 25 24" id="search" xmlns="http://www.w3.org/2000/svg"><g clip-path="url(#rclip0)"><path d="M23.853 21.164l-4.181-4.181a10.592 10.592 0 001.973-6.159c0-5.88-4.785-10.665-10.667-10.665C5.097.158.313 4.943.313 10.825c0 5.88 4.784 10.665 10.665 10.665 2.457 0 4.716-.843 6.52-2.244l4.136 4.136a1.565 1.565 0 002.219 0 1.567 1.567 0 000-2.218zm-21.03-10.34c0-4.497 3.659-8.156 8.156-8.156 4.497 0 8.157 3.66 8.157 8.157 0 1.871-.64 3.592-1.704 4.97a8.239 8.239 0 01-1.186 1.247 8.116 8.116 0 01-5.267 1.94c-4.497-.001-8.156-3.66-8.156-8.157z"/></g><defs><clipPath id="rclip0"><path transform="translate(.313)" d="M0 0h24v24H0z"/></clipPath></defs></symbol><symbol viewBox="0 0 20 20" id="setting" xmlns="http://www.w3.org/2000/svg"><path d="M18.256 7.4a2.45 2.45 0 01-1.931-3.312 1.15 1.15 0 00-.344-1.294 9.22 9.22 0 00-2.75-1.594 1.156 1.156 0 00-1.306.363 2.444 2.444 0 01-3.85 0A1.156 1.156 0 006.769 1.2c-.925.34-1.79.825-2.563 1.438a1.163 1.163 0 00-.362 1.33 2.438 2.438 0 01-2.031 3.35A1.156 1.156 0 00.8 8.25a8.95 8.95 0 00-.056 3.219 1.156 1.156 0 001.019.969A2.436 2.436 0 013.75 15.88a1.138 1.138 0 00.319 1.363 9.289 9.289 0 002.725 1.569 1.15 1.15 0 001.331-.419 2.42 2.42 0 012-1.05 2.45 2.45 0 011.963.987 1.15 1.15 0 001.35.382 9.375 9.375 0 002.5-1.494 1.156 1.156 0 00.337-1.319 2.438 2.438 0 011.956-3.369 1.156 1.156 0 00.981-.95c.1-.521.155-1.05.163-1.58 0-.56-.052-1.12-.156-1.67a1.144 1.144 0 00-.963-.93zM13.125 10a3.126 3.126 0 11-6.251 0 3.126 3.126 0 016.251 0z"/></symbol><symbol viewBox="0 0 16 17" id="sort" xmlns="http://www.w3.org/2000/svg"><g clip-path="url(#tclip0)"><path d="M15.448 13.743H8.83a.552.552 0 000 1.104l6.618-.016a.538.538 0 00.551-.536.552.552 0 00-.551-.552zM7.727 1.597l7.72-.002a.55.55 0 100-1.103h-7.72a.552.552 0 000 1.105zm.93 8.99a.552.552 0 00-.783 0L4.97 13.928V.492H3.867v13.456L.944 10.586a.552.552 0 00-.783 0 .557.557 0 000 .786l3.829 4.406a.546.546 0 00.419.157.545.545 0 00.419-.157l3.828-4.406a.556.556 0 00.001-.786zm6.79-6.782h-7.72a.552.552 0 00-.552.552c0 .305.247.547.552.547h7.72A.548.548 0 0016 4.357a.552.552 0 00-.551-.552zm0 3.312h-7.72a.552.552 0 00-.552.552c0 .305.247.544.552.544l7.72.008a.552.552 0 000-1.104zm0 3.313h-4.411a.552.552 0 00-.552.552c0 .305.247.54.552.54h4.412a.542.542 0 00.551-.54.552.552 0 00-.551-.552z"/></g><defs><clipPath id="tclip0"><path transform="translate(0 .214)" d="M0 0h16v16H0z"/></clipPath></defs></symbol><symbol viewBox="0 0 16 16" id="telegram" xmlns="http://www.w3.org/2000/svg"><path d="M14.629 3.698l-2.012 9.618c-.152.679-.548.848-1.11.528l-3.066-2.29-1.48 1.442c-.163.166-.3.305-.616.305l.22-3.165 5.683-5.204c.247-.223-.054-.347-.384-.123L4.839 9.29l-3.024-.959c-.658-.208-.67-.667.137-.986L13.78 2.727c.548-.208 1.027.124.849.971z"/></symbol><symbol viewBox="0 0 24 24" id="user" xmlns="http://www.w3.org/2000/svg"><path fill-rule="evenodd" clip-rule="evenodd" d="M2 12C2 6.477 6.477 2 12 2A10 10 0 112 12zm10-5.714a3.81 3.81 0 100 7.619 3.81 3.81 0 000-7.62zm0 6.095a2.286 2.286 0 110-4.571 2.286 2.286 0 010 4.571zm-4.286 7.033v-1.428a2.3 2.3 0 012.143-2.415h4.286a2.3 2.3 0 012.143 2.422v1.428a8.514 8.514 0 01-8.572 0v-.007zm10-1.478v.421a8.571 8.571 0 10-11.428 0v-.421a3.714 3.714 0 013.571-3.793h4.286a3.721 3.721 0 013.571 3.793z"/></symbol><symbol viewBox="0 0 16 16" id="viber" xmlns="http://www.w3.org/2000/svg"><path d="M8 1.335c-1.071.013-3.374.19-4.662 1.37-.958.948-1.292 2.35-1.331 4.084-.033 1.728-.072 4.973 3.058 5.856v1.346s-.02.538.337.648c.438.14.688-.275 1.105-.72l.778-.879c2.142.178 3.782-.232 3.97-.293.435-.139 2.883-.451 3.283-3.696.41-3.351-.2-5.463-1.301-6.418h-.007c-.332-.306-1.668-1.279-4.652-1.29 0 0-.222-.014-.578-.008zm.037.942a7.02 7.02 0 01.488.011c2.527.007 3.732.767 4.017 1.023.927.794 1.405 2.697 1.055 5.495-.332 2.713-2.317 2.885-2.685 3.002-.156.05-1.6.406-3.42.289 0 0-1.356 1.634-1.78 2.055-.067.074-.146.095-.196.085-.071-.018-.093-.107-.089-.229l.013-2.233c-2.655-.733-2.498-3.5-2.47-4.946.033-1.446.304-2.628 1.113-3.43 1.088-.982 3.043-1.115 3.953-1.122zm.2 1.446a.166.166 0 100 .332 3.136 3.136 0 012.242.883c.606.588.9 1.378.912 2.411 0 .092.074.167.167.167V7.51a.167.167 0 00.168-.165 3.588 3.588 0 00-1.009-2.646c-.66-.645-1.496-.977-2.48-.977zm-2.198.382a.523.523 0 00-.342.067H5.69a2.61 2.61 0 00-.637.523 1.003 1.003 0 00-.256.525.71.71 0 00.026.302l.01.006c.172.504.396.988.67 1.444a8.48 8.48 0 001.29 1.762l.015.022.024.017.015.018.017.015c.532.505 1.127.94 1.769 1.295.734.4 1.18.588 1.447.667v.004c.078.024.15.034.221.034.228-.016.444-.109.613-.262a2.53 2.53 0 00.517-.638v-.004c.128-.241.085-.469-.1-.623-.37-.323-.77-.61-1.195-.857-.285-.155-.574-.061-.69.095l-.25.315c-.129.156-.361.134-.361.134l-.007.004C7.093 8.527 6.63 6.772 6.63 6.772s-.022-.239.139-.36l.312-.252c.15-.122.254-.41.094-.695a7.498 7.498 0 00-.856-1.194.475.475 0 00-.28-.167zm2.486.495c-.221 0-.221.334.003.334A2.098 2.098 0 0110 5.572 1.94 1.94 0 0110.5 7a.168.168 0 00.167.165l.007.009a.169.169 0 00.167-.167c.015-.662-.191-1.218-.595-1.663C9.84 4.9 9.273 4.65 8.549 4.6h-.024zm.274.898c-.228-.006-.236.335-.01.341.55.029.816.306.851.877a.166.166 0 00.165.163h.007a.168.168 0 00.16-.178c-.039-.744-.445-1.164-1.166-1.202H8.8z"/></symbol><symbol viewBox="0 0 24 24" id="vk" xmlns="http://www.w3.org/2000/svg"><path d="M21.579 6.855c.14-.465 0-.806-.662-.806h-2.193c-.558 0-.813.295-.953.619 0 0-1.115 2.719-2.695 4.482-.51.513-.743.675-1.021.675-.139 0-.341-.162-.341-.627V6.855c0-.558-.161-.806-.626-.806H9.642c-.348 0-.558.258-.558.504 0 .528.79.65.871 2.138v3.228c0 .707-.127.836-.407.836-.743 0-2.551-2.73-3.624-5.853-.209-.607-.42-.852-.98-.852H2.752c-.627 0-.752.295-.752.619 0 .582.743 3.462 3.461 7.27 1.812 2.602 4.363 4.012 6.687 4.012 1.393 0 1.565-.313 1.565-.853v-1.966c0-.626.133-.752.574-.752.324 0 .882.164 2.183 1.417 1.486 1.486 1.732 2.153 2.567 2.153h2.192c.626 0 .939-.313.759-.931-.197-.615-.907-1.51-1.849-2.57-.512-.603-1.277-1.253-1.51-1.578-.325-.42-.231-.604 0-.976.001 0 2.672-3.761 2.95-5.04z"/></symbol><symbol viewBox="0 0 16 16" id="whatsapp" xmlns="http://www.w3.org/2000/svg"><path fill-rule="evenodd" clip-rule="evenodd" d="M12.269 3.755A5.947 5.947 0 008.035 2 5.994 5.994 0 002.05 7.985a5.98 5.98 0 00.799 2.992L2 14.077l3.173-.832c.877.477 1.86.728 2.86.728h.002a5.993 5.993 0 005.533-8.276 5.953 5.953 0 00-1.3-1.942zm-4.234 9.208h-.002c-.89 0-1.765-.24-2.532-.694l-.181-.108-1.883.494.502-1.835-.118-.188a4.965 4.965 0 01-.76-2.647 4.982 4.982 0 016.88-4.597c.604.25 1.152.618 1.613 1.081a4.946 4.946 0 011.455 3.52 4.982 4.982 0 01-4.974 4.974zm2.729-3.726c-.15-.075-.885-.436-1.022-.486-.137-.05-.236-.075-.336.074-.1.15-.387.486-.474.586-.087.1-.175.112-.324.038-.15-.075-.631-.233-1.203-.742a4.505 4.505 0 01-.832-1.036c-.087-.15-.009-.231.066-.306.068-.066.15-.174.224-.262.075-.087.1-.149.15-.249.05-.1.025-.187-.013-.262-.037-.075-.337-.811-.461-1.11-.121-.29-.244-.252-.336-.256a6.418 6.418 0 00-.286-.005.55.55 0 00-.4.186c-.137.15-.523.512-.523 1.248s.536 1.447.61 1.547c.075.1 1.055 1.61 2.555 2.258.358.154.636.246.853.315.358.114.684.098.942.06.287-.043.885-.362 1.01-.711.124-.35.124-.649.087-.711-.038-.063-.138-.101-.287-.176z"/></symbol></svg>