<svg width="439" height="175" viewBox="0 0 439 175" fill="none" xmlns="http://www.w3.org/2000/svg">
<path d="M284.54 87.5363C284.54 35.5194 262.317 0.108887 219.58 0.108887C176.599 0.108887 154.376 35.5194 154.376 87.5363C154.376 139.309 176.599 174.719 219.58 174.719C262.317 174.719 284.54 139.309 284.54 87.5363ZM184.414 87.5363C184.414 51.6373 194.426 27.7047 219.58 27.7047C244.734 27.7047 254.502 51.6373 254.502 87.5363C254.502 122.947 244.49 147.124 219.58 147.124C194.426 147.124 184.414 123.191 184.414 87.5363Z" fill="#1D47CE"/>
<path fill-rule="evenodd" clip-rule="evenodd" d="M108.884 32.5889V70.3194H81.044V32.5889L29.5156 108.05H81.044H108.884H132.084V133.936H108.884V172.277H79.8229V133.936H0.69873V106.829L73.9619 0.597321H108.884V32.5889Z" fill="#1D47CE"/>
<path fill-rule="evenodd" clip-rule="evenodd" d="M415.101 70.3194V108.05H438.301V133.936H415.101V172.277H386.04V133.936H306.916V106.829L380.179 0.597321H415.101V32.5889H387.261L335.733 108.05H387.261V70.3194H415.101Z" fill="#1D47CE"/>
</svg>
