<svg width="16" height="11" viewBox="0 0 16 11" fill="none" xmlns="http://www.w3.org/2000/svg">
<path d="M8 0.731201C4.94303 0.731201 2.17081 2.4037 0.125192 5.12028C-0.0417306 5.34284 -0.0417306 5.65377 0.125192 5.87634C2.17081 8.59619 4.94303 10.2687 8 10.2687C11.057 10.2687 13.8292 8.59619 15.8748 5.87961C16.0417 5.65705 16.0417 5.34611 15.8748 5.12355C13.8292 2.4037 11.057 0.731201 8 0.731201ZM8.21929 8.85803C6.19004 8.98567 4.51427 7.31318 4.64191 5.28065C4.74665 3.60488 6.10494 2.24659 7.78071 2.14186C9.80996 2.01421 11.4857 3.68671 11.3581 5.71923C11.2501 7.39173 9.89179 8.75002 8.21929 8.85803ZM8.11783 7.30663C7.02465 7.37537 6.1213 6.47529 6.19331 5.38212C6.24895 4.47877 6.9821 3.7489 7.88545 3.68998C8.97862 3.62125 9.88197 4.52132 9.80996 5.6145C9.75105 6.52112 9.0179 7.25099 8.11783 7.30663Z" fill="black"/>
</svg>
